<svg xmlns="http://www.w3.org/2000/svg" version="1.1" xmlns:xlink="http://www.w3.org/1999/xlink" xmlns:svgjs="http://svgjs.dev/svgjs" style="overflow: hidden; height: 85vh;" viewBox="0 0 1920 1080" class="overflow-hidden rounded-md drop-shadow-lg transition duration-300"><rect width="1920" height="1080" fill="#f4f3ee"/><g clip-path="url(&quot;#SvgjsClipPath2223&quot;)"><g transform="matrix(0.5398922972037744,1.0153897317877658,-1.0153897317877658,0.5398922972037744,976.3244170714654,-696.1054271025041)"><path d="M0,-1080C9.822287012156659,-963.0091486735963,55.02801337530983,-586.0285073560439,58.93372207293996,-378.0548920415778C62.83943077057008,-170.0812767271117,39.02671649159342,-36.19310100984663,23.434252185780736,167.8416918867963C7.841787879968052,371.8764847834392,-21.001316224934868,621.167508860756,-34.621063761936135,846.15386533828C-48.2408112989374,1071.140221815804,-64.05441032988288,1298.7854749749863,-58.284233036226865,1517.7598307519397C-52.51405574257085,1736.7341865288931,-9.714038839371144,2052.95997179199,0,2160L 1920 2160 L 1920 -1080 Z" fill="url(&quot;#SvgjsLinearGradient2216&quot;)"/><path d="M274.2857142857143,-1080C277.54488092537014,-992.5580056049107,293.209448359069,-712.8871329686807,293.8407141236495,-555.3480336294642C294.47197988823,-397.80893429024775,279.4135357570061,-282.5611059070783,278.0733088731973,-134.76540396470085C276.73308198938844,13.03029797767661,285.82141215737835,177.80141542003605,285.7993528207966,331.4261780248006C285.7772934842149,485.05094062956516,268.7605929640079,626.0775811871158,277.9409528537069,786.9831716638865C287.1213127434059,947.8887621406573,350.56394459712294,1137.478108003332,340.8815121589905,1296.8597208854253C331.1990797208581,1456.2413337675187,230.9456578704585,1599.4161357706846,219.84635822491245,1743.272848956447C208.7470585793664,1887.1295621422094,265.21248827558065,2090.5454748260745,274.2857142857143,2160L 1920 2160 L 1920 -1080 Z" fill="url(&quot;#SvgjsLinearGradient2217&quot;)"/><path d="M548.5714285714286,-1080C541.2425360375014,-974.6903650181679,502.53294379187963,-654.1271807182512,504.59807336786554,-448.1421901090074C506.66320294385145,-242.15719949976358,560.018269242181,-60.958874925499,560.9622060273439,155.90994365546305C561.9061428125068,372.7787622364251,501.66393330514427,616.229756578152,510.26169407884294,853.0707213767649C518.8594548525416,1089.9116861753778,606.1638149207718,1359.134186009935,612.548770669536,1576.955732447141C618.9337264183002,1794.7772788843467,559.2343189211131,2062.825955407857,548.5714285714286,2160L 1920 2160 L 1920 -1080 Z" fill="url(&quot;#SvgjsLinearGradient2218&quot;)"/><path d="M822.8571428571428,-1080C816.8249601797759,-982.8489839827824,776.0789715025994,-679.3091245508698,786.6640467929415,-497.09390389669454C797.2491220832835,-314.8786832425193,873.7873231097967,-167.60075904338925,886.3675945991954,13.291323925051842C898.9478660885941,194.18340689349293,882.8862358347906,411.57670908024954,862.1456757293336,588.2585939139522C841.4051156238766,764.9404787476548,761.2278360674408,906.4112498680219,761.9242339664534,1073.3826329272674C762.620631865466,1240.354015986513,856.1685783082944,1408.9839977573038,866.3240631234092,1590.0868922694258C876.4795479385241,1771.1897867815478,830.1016295681871,2065.014482044904,822.8571428571428,2160L 1920 2160 L 1920 -1080 Z" fill="url(&quot;#SvgjsLinearGradient2219&quot;)"/><path d="M1097.142857142857,-1080C1098.2368893807643,-1005.5884271742824,1107.0143056085037,-790.6276588017585,1103.7070505702998,-633.5305630456942C1100.3997955320958,-476.4334672896299,1087.200590082009,-288.81979109188273,1077.2993269136339,-137.41742546361428C1067.3980637452587,13.984940164654205,1034.0161588786684,118.73337812537414,1044.2994715600491,274.8836307239166C1054.5827842414299,431.0338833224591,1123.1121517269798,641.2958530794943,1138.999203001918,799.4840901276406C1154.886254276856,957.6723271757868,1149.5175916635003,1080.9141800352345,1139.6217792096775,1224.013053012794C1129.7259667558546,1367.1119259903535,1086.7041486234507,1502.0795034951302,1079.6243282789806,1658.0773279929979C1072.5445079345104,1814.0751524908655,1094.223102332211,2076.3462213321664,1097.142857142857,2160L 1920 2160 L 1920 -1080 Z" fill="url(&quot;#SvgjsLinearGradient2220&quot;)"/><path d="M1371.4285714285716,-1080C1367.7545955988812,-1001.1949527650946,1356.545762966423,-786.7040803985784,1349.3847164504298,-607.1697165905678C1342.2236699344367,-427.6353527825571,1317.7924607613718,-182.58017133752605,1328.4622923326122,-2.7938171519358406C1339.1321239038525,176.99253703365434,1400.1700107314641,296.6969242463965,1413.4037058778713,471.54840852297343C1426.6374010242785,646.3998927995503,1418.3438645006172,857.5572443538888,1407.8644632110556,1046.3150885075254C1397.385061921494,1235.072932661162,1356.5999467709166,1418.4813215293802,1350.5272981405026,1604.0954734447928C1344.4546495100885,1789.7096253602053,1367.94502588056,2067.349245574132,1371.4285714285716,2160L 1920 2160 L 1920 -1080 Z" fill="url(&quot;#SvgjsLinearGradient2221&quot;)"/><path d="M1645.7142857142856,-1080C1648.8922626975004,-997.2525303105069,1654.838059194563,-769.7203849672055,1664.7821476135746,-583.5151818630419C1674.7262360325863,-397.3099787588783,1710.1900491710762,-143.12586407236915,1705.3788162283554,37.23121862498154C1700.5675832856346,217.58830132233226,1656.9127225777388,331.05173931151376,1635.914749957249,498.6273143210622C1614.916777336759,666.2028893306107,1572.9578817554843,844.5329403373186,1579.3909805054159,1042.6846686822726C1585.8240792553474,1240.8363970272264,1663.4594582553605,1501.318462504498,1674.5133424568387,1687.537684390786C1685.567226658317,1873.7569062770738,1650.5141285047112,2081.2562807317977,1645.7142857142856,2160L 1920 2160 L 1920 -1080 Z" fill="url(&quot;#SvgjsLinearGradient2222&quot;)"/></g></g><defs><linearGradient x1="0.1" y1="0" x2="0" y2="1" id="SvgjsLinearGradient2216"><stop stop-color="#f4f3ee" offset="0"/><stop stop-color="#f4f2ee" offset="0"/></linearGradient><linearGradient x1="0.1" y1="0" x2="0" y2="1" id="SvgjsLinearGradient2217"><stop stop-color="#f4eeee" offset="0"/><stop stop-color="#f4eeef" offset="0.14285714285714285"/></linearGradient><linearGradient x1="0.1" y1="0" x2="0" y2="1" id="SvgjsLinearGradient2218"><stop stop-color="#f4eef3" offset="0"/><stop stop-color="#f4eef4" offset="0.2857142857142857"/></linearGradient><linearGradient x1="0.1" y1="0" x2="0" y2="1" id="SvgjsLinearGradient2219"><stop stop-color="#f0eef4" offset="0"/><stop stop-color="#efeef4" offset="0.42857142857142855"/></linearGradient><linearGradient x1="0.1" y1="0" x2="0" y2="1" id="SvgjsLinearGradient2220"><stop stop-color="#eef2f4" offset="0"/><stop stop-color="#eef3f4" offset="0.5714285714285714"/></linearGradient><linearGradient x1="0.1" y1="0" x2="0" y2="1" id="SvgjsLinearGradient2221"><stop stop-color="#eef4f1" offset="0"/><stop stop-color="#eef4f0" offset="0.7142857142857143"/></linearGradient><linearGradient x1="0.1" y1="0" x2="0" y2="1" id="SvgjsLinearGradient2222"><stop stop-color="#f0f4ee" offset="0"/><stop stop-color="#f1f4ee" offset="0.8571428571428571"/></linearGradient><clipPath id="SvgjsClipPath2223"><rect width="1920" height="1080"/></clipPath></defs></svg>